<svg xmlns="http://www.w3.org/2000/svg"> style="position:relative" version="1.1" width="210" height="135" xmlns="http://www.w3.org/2000/svg" xmlns:xlink="http://www.w3.org/1999/xlink" xmlns:a="http://ns.adobe.com/AdobeSVGViewerExtensions/3.0/" ng-if="$root.removeAll != true" class="ng-scope"&gt;
                                <g ng-preview="" ng-model="config" ng-shapes="indexedShapes" ng-etape="etape" class="ng-presentation ng-pristine ng-untouched ng-valid ng-isolate-scope ng-not-empty" transform="translate(0 34.80833435058594)">
                                    <g class="logo-preview ng-scope" transform="scale(0.39622641509433965)">
                                        <g class="logo-ctn"><g class="logo" id="item-y456uwniexvk5o4yaage2osy7xsrlmen" transform="translate(0 0) scale( 1.2808901640806485)"><path d="M94.228 44.357c6.108.241 12.026-3.498 14.247-9.093 2.378-5.852.371-13.218-4.662-17.133-2.316-1.835-5.362-2.903-8.842-3.104-.559-4.351-2.651-8.334-5.795-10.999C85.132.447 79.046-.895 73.678.606 68.982 1.89 64.91 5.405 62.905 9.863c-3.748-1.027-7.453-.817-10.507.612-3.188 1.537-5.693 3.875-7.044 6.56-2.251 4.113-2.142 9.604.278 13.991 1.708 3.207 4.95 5.733 8.76 6.861-.269 1.696-.544 3.39-.821 5.083l-.616 3.797a.763.763 0 00.97.865 49.97 49.97 0 013.025-.833.763.763 0 00.576-.619l.517-3.186c.437-2.696.875-5.391 1.301-8.088a.754.754 0 00-.158-.591.748.748 0 00-.543-.285c-3.068-.208-5.666-1.282-7.333-3.042-2.33-2.283-3.457-5.48-2.932-8.41.408-4.293 4.135-8.135 8.457-8.744 1.698-.174 3.442.178 5.103.629.103 2.482.944 4.889 2.45 6.989a.76.76 0 001.377-.463c-.093-3.833.135-8.19 2.562-11.469 2.341-3.312 6.655-5.278 10.978-5.007 4.356.343 8.448 3.314 10.187 7.404.654 1.467.921 2.841.793 4.092-3.065 1.047-5.714 3.223-7.497 6.17a.759.759 0 00.144.961c.265.248.68.259.97.035 3.923-3.016 8.834-4.201 13.185-3.157 2.455.408 4.725 1.958 6.228 4.253 1.506 2.297 2.023 5.002 1.407 7.479-.452 2.692-2.387 5.271-5.167 6.893-2.234 1.265-5.217 1.506-8.183.664a.77.77 0 00-.614.089.77.77 0 00-.344.517c-.446 2.68-.874 5.361-1.304 8.043l-.226 1.414a.772.772 0 00.424.807c.906.43 1.796.914 2.685 1.404a.763.763 0 001.118-.547c.374-2.369.723-4.53 1.117-6.677z" fill="#19767e"/><path d="M35.781 114.007c-.318 0-.618-.015-.935-.017 7.933 9.069 19.583 14.806 32.579 14.806 21.15 0 38.746-15.176 42.521-35.23-12.164 7.121-27.158 13.791-42.644 17.008-10.808 2.245-21.708 3.433-31.521 3.433z" fill="#8fc242"/><path d="M151.533 55.406c-6.504 6.17-12.963 12.296-19.438 18.441l-2.08-2.318c6.646-5.965 13.257-11.899 19.902-17.866l-1.534-1.708-20.039 17.989-1.691-1.885 20.058-18.003c-.563-.627-1.055-1.174-1.616-1.801l-20.059 18.006-2.031-2.263 20.627-17.379-1.541-1.718-5.236 3.636c-4.245 2.944-8.48 5.905-12.742 8.826-3.157 2.163-5.212 4.985-5.527 8.898-.058.722-.02 1.454-.123 2.167-.218 1.512-.463 3.148-1.019 4.275-1.693 1.623-4.165 3.704-7.3 6.002a43.277 43.277 0 00-1.059-4.909c-5.111-18.205-21.82-31.557-41.658-31.557-23.903 0-43.279 19.377-43.279 43.279 0 4.395.66 8.635 1.878 12.632a42.905 42.905 0 001.76 4.726c-12.438-.881-20.99-4.449-22.432-10.381-1.437-5.911 4.471-12.975 15.045-19.446C6.695 80.245-1.342 88.731.185 96.083c1.639 7.886 13.882 12.592 31.143 13.273 10.293.407 22.368-.615 35.047-3.249 16.652-3.461 32.309-10.892 44.261-18.267 4.841-2.988 9.093-5.967 12.529-8.669l.003.001c1.664-.949 3.343-1.076 6.287-.91 3.167.179 5.985-.916 8.143-3.32 4.372-4.875 8.696-9.792 13.038-14.695.867-.98 1.713-1.978 2.574-2.972l-1.677-1.869zM35.734 64.063c4.416 3.167 9.667 5.417 9.667 5.417-1.5 6.5-1.833 13.5-1.833 13.5H29.234c.75-11.416 6.5-18.917 6.5-18.917zm-2.511 39.076c-3.497-6.692-4.239-14.992-4.239-14.992h14.333c.142 5.758 1.735 11.862 2.202 13.538a361.694 361.694 0 01-12.296 1.454zm5.678-43.076s7.584-8.667 18.417-11.417c0 0-6.918 6.75-10.084 16 0 .001-4.25-1.583-8.333-4.583zm26.083 38.304a266.809 266.809 0 01-14.377 2.585c-.529-2.03-1.889-7.71-1.956-12.805l16.333-.083v10.303zm0-15.47H48.401s.667-6.999 1.917-11.667c0 0 5.5 1.917 14.666 2.417v9.25zm-13.083-16.5c3.75-10.333 12.917-17.083 12.917-17.083l.166 19.083c-7.584-.083-13.083-2-13.083-2zm18.082-17.084s9.167 6.75 12.917 17.083c0 0-5.499 1.917-13.083 2l.166-19.083zm15.845 43.458c-4.409 1.509-9.701 3.055-16.011 4.525v-9.232l16.333.083a43.5 43.5 0 01-.322 4.624zm-16.011-9.874v-9.25c9.166-.5 14.666-2.417 14.666-2.417 1.25 4.668 1.917 11.667 1.917 11.667H69.817zm7.666-34.25C88.316 51.397 95.9 60.063 95.9 60.063c-4.083 3-8.333 4.583-8.333 4.583-3.166-9.249-10.084-15.999-10.084-15.999zM91.34 90.733c.071-.852.122-1.718.144-2.586h5.72a86.877 86.877 0 01-5.864 2.586zm-.107-7.753s-.333-7-1.833-13.5c0 0 5.251-2.25 9.667-5.417 0 0 5.75 7.5 6.5 18.917H91.233z" fill="#19767e"/></g></g><g class="main" transform="translate(216.26666259765625 46.65833282470703)"><g class="formes"/><g class="inline-shape"><g class="contents"><g id="texts"><g class="firstLine" transform="scale(0.8049604551695798)"><text id="item-2fykdok9axsenztzflh08malbnpxw3rk" key="0" dominant-baseline="auto" alignment-baseline="auto" font-family="Agne" font-size="62px" fill="#19767e" letter-spacing="0" xml:space="preserve" class="" transform="translate(0 67)">bon appétit !</text></g><g class="sndLine" transform="translate(0 69.24488200437679)  scale(1)"/><g class="thirdLine" transform="translate(0 58.95455942373163)  scale(1)"/><g class="initial"/></g></g></g></g>
                                    </g>
                                </g>
                            </svg>